<svg xmlns="http://www.w3.org/2000/svg" version="1.1" xmlns:xlink="http://www.w3.org/1999/xlink" xmlns:svgjs="http://svgjs.dev/svgjs" width="560" height="1440" preserveAspectRatio="none" viewBox="0 0 560 1440">
    <g mask="url(&quot;#SvgjsMask1071&quot;)" fill="none">
        <rect width="560" height="1440" x="0" y="0" fill="rgba(67, 147, 228, 1)"></rect>
        <path d="M0,536.519C98.135,549.941,187.995,471.222,257.459,400.614C318.889,338.172,325.662,244.985,364.198,166.323C404.16,84.75,486.046,20.636,488.093,-70.177C490.23,-165.022,448.322,-264.645,375.274,-325.177C304.754,-383.614,199.019,-352.911,112.092,-381.751C20.572,-412.115,-52.248,-519.528,-146.29,-498.218C-239.457,-477.106,-266.041,-356.848,-325.999,-282.479C-383.351,-211.343,-482.159,-161.545,-491.046,-70.602C-499.928,20.285,-421.318,93.409,-370.123,169.029C-326.781,233.049,-270.719,281.406,-215.856,335.878C-144.705,406.523,-99.34,522.932,0,536.519" fill="#1d73c9"></path>
        <path d="M560 2100.971C681.556 2097.82 764.942 1983.551 863.972 1912.989 957.7090000000001 1846.199 1089.13 1807.433 1125.312 1698.17 1161.433 1589.091 1066.407 1483.089 1043.629 1370.465 1022.5640000000001 1266.311 1040.592 1158.4189999999999 996.585 1061.6970000000001 941.8199999999999 941.329 891.419 779.358 762.102 751.703 630.423 723.543 525.597 864.07 412.226 936.7280000000001 329.781 989.566 253.459 1044.81 189.312 1118.797 125.14800000000002 1192.8029999999999 75.66699999999997 1273.858 40.62699999999995 1365.325-2.80499999999995 1478.696-79.94899999999996 1599.209-38.43700000000001 1713.297 3.0670000000000073 1827.363 143.85500000000002 1863.02 245.72899999999998 1929.0149999999999 348.022 1995.281 438.15999999999997 2104.129 560 2100.971" fill="#7cb4ec"></path>
    </g>
    <defs>
        <mask id="SvgjsMask1071">
            <rect width="560" height="1440" fill="#ffffff"></rect>
        </mask>
    </defs>
</svg>