<!DOCTYPE svg PUBLIC "-//W3C//DTD SVG 1.1//EN" "http://www.w3.org/Graphics/SVG/1.1/DTD/svg11.dtd">
<!-- Uploaded to: SVG Repo, www.svgrepo.com, Transformed by: SVG Repo Mixer Tools -->
<svg height="800px" width="800px" version="1.1" id="Capa_1" xmlns="http://www.w3.org/2000/svg" xmlns:xlink="http://www.w3.org/1999/xlink" viewBox="-2.47 -2.47 29.64 29.64" xml:space="preserve" fill="#000000">
<g id="SVGRepo_bgCarrier" stroke-width="0">
<path transform="translate(-2.47, -2.47), scale(1.8525)" fill="#ffffff" d="M9.166.33a2.25 2.25 0 00-2.332 0l-5.25 3.182A2.25 2.25 0 00.5 5.436v5.128a2.25 2.25 0 001.084 1.924l5.25 3.182a2.25 2.25 0 002.332 0l5.25-3.182a2.25 2.25 0 001.084-1.924V5.436a2.25 2.25 0 00-1.084-1.924L9.166.33z" strokewidth="0"/>
</g>
<g id="SVGRepo_tracerCarrier" stroke-linecap="round" stroke-linejoin="round"/>
<g id="SVGRepo_iconCarrier"> <g> <g> <polygon style="fill:#0B6BCB;" points="8.823,1.663 8.823,14.715 3.687,1.665 3.687,1.663 3.687,1.663 3.687,1.66 3.684,1.663 0,1.663 0,23.054 3.687,23.054 3.687,10.037 8.823,23.053 8.823,23.054 12.512,23.054 12.512,1.663 "/> <polygon style="fill:#0B6BCB;" points="24.699,1.663 21.007,1.663 21.007,1.645 17.369,1.645 17.369,1.663 13.716,1.663 13.716,5.301 17.369,5.301 17.369,23.005 21.007,23.005 21.007,5.301 24.699,5.301 "/> </g> </g> </g>
</svg>